<?xml version="1.0" encoding="UTF-8" standalone="no"?><!DOCTYPE svg PUBLIC "-//W3C//DTD SVG 1.1//EN" "http://www.w3.org/Graphics/SVG/1.1/DTD/svg11.dtd"><svg width="100%" height="100%" viewBox="0 0 1957 1957" version="1.1" xmlns="http://www.w3.org/2000/svg" xmlns:xlink="http://www.w3.org/1999/xlink" xml:space="preserve" xmlns:serif="http://www.serif.com/" style="fill-rule:evenodd;clip-rule:evenodd;stroke-linejoin:round;stroke-miterlimit:2;"><g><path d="M978.438,349.167c-251.042,0 -519.788,159.958 -699.771,323.583c-145.546,132.317 -244.675,259.833 -278.667,305.583c33.992,45.75 133.121,173.267 278.667,305.583c179.979,163.625 448.729,323.583 699.771,323.583c251.042,0 519.788,-159.958 699.771,-323.583c145.546,-132.317 244.675,-259.833 278.667,-305.583c-33.992,-45.75 -133.121,-173.267 -278.667,-305.583c-179.979,-163.625 -448.729,-323.583 -699.771,-323.583Zm0,95.833c92.819,0.146 184.011,24.521 264.525,70.704c-78.561,28.785 -131.124,103.961 -131.192,187.629c0.029,0.629 0.061,1.258 0.096,1.888c-30.156,-14.831 -62.58,-24.516 -95.929,-28.654l0,-98.233l-75,0l0,98.233c-137.642,17.062 -247.208,126.625 -264.267,264.267l-98.233,0l0,75l98.233,0c17.062,137.642 126.625,247.208 264.267,264.267l0,98.233l75,0l0,-98.233c137.642,-17.063 247.208,-126.625 264.267,-264.267l98.233,0l0,-75l-98.233,0c-1.764,-14.085 -4.521,-28.028 -8.25,-41.725c13.097,2.737 26.437,4.152 39.817,4.225c69.878,-0.103 134.818,-36.821 170.929,-96.646c19.026,55.236 28.847,113.225 29.071,171.646c0,292.578 -240.755,533.333 -533.333,533.333c-292.578,0 -533.333,-240.755 -533.333,-533.333c-0,-292.578 240.755,-533.333 533.333,-533.333Zm-37.5,307.242l0,92.758l75,0l0,-92.758c96.821,15.8 172.792,91.771 188.592,188.592l-92.758,0l0,75l92.758,0c-15.8,96.821 -91.771,172.792 -188.592,188.592l0,-92.758l-75,0l0,92.758c-96.821,-15.8 -172.792,-91.771 -188.592,-188.592l92.758,0l0,-75l-92.758,0c15.8,-96.821 91.771,-172.792 188.592,-188.592Z" style="fill-rule:nonzero;"/></g></svg>