<?xml version="1.0" encoding="UTF-8" standalone="no"?><!DOCTYPE svg PUBLIC "-//W3C//DTD SVG 1.1//EN" "http://www.w3.org/Graphics/SVG/1.1/DTD/svg11.dtd"><svg width="100%" height="100%" viewBox="0 0 1957 1957" version="1.1" xmlns="http://www.w3.org/2000/svg" xmlns:xlink="http://www.w3.org/1999/xlink" xml:space="preserve" xmlns:serif="http://www.serif.com/" style="fill-rule:evenodd;clip-rule:evenodd;stroke-linejoin:round;stroke-miterlimit:2;"><g><path d="M978.438,349.167c-251.042,0 -519.788,159.958 -699.771,323.583c-145.546,132.317 -244.675,259.833 -278.667,305.583c33.992,45.75 133.121,173.267 278.667,305.583c179.979,163.625 448.729,323.583 699.771,323.583c251.042,0 519.788,-159.958 699.771,-323.583c145.546,-132.317 244.675,-259.833 278.667,-305.583c-33.992,-45.75 -133.121,-173.267 -278.667,-305.583c-179.979,-163.625 -448.729,-323.583 -699.771,-323.583Zm0,95.833c92.819,0.146 184.011,24.521 264.525,70.704c-78.561,28.785 -131.124,103.961 -131.192,187.629c0.029,0.629 0.061,1.258 0.096,1.888c-3.39,80.45 49.958,164.933 160.087,193.887c12.941,3.402 26.437,4.152 39.817,4.225c69.878,-0.103 134.818,-36.821 170.929,-96.646c19.026,55.236 28.847,113.225 29.071,171.646c0,292.578 -240.755,533.333 -533.333,533.333c-292.578,0 -533.333,-240.755 -533.333,-533.333c-0,-292.578 240.755,-533.333 533.333,-533.333Z" style="fill-rule:nonzero;"/><path d="M1952.24,1406.675l-115.946,200.825l-1831.658,-1057.508l115.946,-200.825l1831.658,1057.508Z"/></g></svg>