<?xml version="1.0" encoding="UTF-8" standalone="no"?><!DOCTYPE svg PUBLIC "-//W3C//DTD SVG 1.1//EN" "http://www.w3.org/Graphics/SVG/1.1/DTD/svg11.dtd"><svg width="100%" height="100%" viewBox="0 0 8155 8155" version="1.1" xmlns="http://www.w3.org/2000/svg" xmlns:xlink="http://www.w3.org/1999/xlink" xml:space="preserve" xmlns:serif="http://www.serif.com/" style="fill-rule:evenodd;clip-rule:evenodd;stroke-linejoin:round;stroke-miterlimit:2;"><g><path d="M4076.825,1454.862c1046.008,0 2165.8,666.492 2915.712,1348.263c606.442,551.317 1019.479,1082.638 1161.113,1273.263c-141.633,190.625 -554.671,721.942 -1161.113,1273.263c-749.929,681.771 -1869.704,1348.262 -2915.712,1348.262c-1046.008,0 -2165.8,-666.492 -2915.713,-1348.262c-606.442,-551.317 -1019.479,-1082.638 -1161.112,-1273.263c141.633,-190.625 554.671,-721.942 1161.112,-1273.263c749.929,-681.771 1869.704,-1348.263 2915.713,-1348.263Zm719.874,1977.932c-116.513,-147.044 -171.145,-322.907 -163.92,-494.373c-0.146,-2.625 -0.279,-5.246 -0.4,-7.867c0.283,-348.617 219.296,-661.85 546.633,-781.788c-335.475,-192.429 -715.442,-293.992 -1102.187,-294.6c-1219.075,0 -2222.221,1003.146 -2222.221,2222.221c0,1219.075 1003.146,2222.221 2222.221,2222.221c1219.075,0 2222.221,-1003.146 2222.221,-2222.221c-0.812,-211.899 -31.927,-422.435 -92.265,-625.227l-0,-18.367l-5.551,0c-7.361,-23.981 -15.133,-47.851 -23.313,-71.598c-14.994,24.841 -31.181,48.726 -48.463,71.598l-1332.755,0Z"/><rect x="3783.985" y="2418.936" width="585.681" height="3314.903"/><path d="M5734.276,4369.836l-3314.903,0l0,-586.898l3314.903,-0l0,586.898Z"/></g></svg>