<?xml version="1.0" encoding="UTF-8" standalone="no"?><!DOCTYPE svg PUBLIC "-//W3C//DTD SVG 1.1//EN" "http://www.w3.org/Graphics/SVG/1.1/DTD/svg11.dtd"><svg width="100%" height="100%" viewBox="0 0 8155 8155" version="1.1" xmlns="http://www.w3.org/2000/svg" xmlns:xlink="http://www.w3.org/1999/xlink" xml:space="preserve" xmlns:serif="http://www.serif.com/" style="fill-rule:evenodd;clip-rule:evenodd;stroke-linejoin:round;stroke-miterlimit:2;"><g><path d="M2038.13,0c-523.143,0 -1083.179,333.334 -1458.243,674.31c-303.301,275.734 -509.875,541.462 -580.71,636.8c70.835,95.338 277.409,361.069 580.71,636.8c375.056,340.976 935.1,674.31 1458.243,674.31c523.143,0 1083.179,-333.334 1458.243,-674.31c303.301,-275.734 509.875,-541.462 580.71,-636.8c-70.835,-95.338 -277.409,-361.069 -580.71,-636.8c-375.056,-340.976 -935.1,-674.31 -1458.243,-674.31Zm0,199.705c193.424,0.304 383.458,51.099 551.24,147.339c-163.712,59.985 -273.248,216.643 -273.389,390.998c0.06,1.311 0.127,2.622 0.2,3.934c-7.064,167.649 104.107,343.702 333.603,404.038c26.968,7.089 55.092,8.652 82.974,8.804c145.618,-0.215 280.945,-76.731 356.197,-201.399c39.648,115.106 60.114,235.948 60.581,357.691c0,609.699 -501.706,1111.405 -1111.405,1111.405c-609.699,0 -1111.405,-501.706 -1111.405,-1111.405c0,-609.699 501.706,-1111.405 1111.405,-1111.405Z" style="fill-rule:nonzero;"/><path d="M4077.083,2765.973c-523.143,0 -1083.179,333.334 -1458.243,674.31c-303.301,275.734 -509.875,541.462 -580.71,636.8c70.835,95.338 277.409,361.069 580.71,636.8c375.056,340.976 935.1,674.31 1458.243,674.31c523.143,0 1083.179,-333.334 1458.243,-674.31c303.301,-275.734 509.875,-541.462 580.71,-636.8c-70.835,-95.338 -277.409,-361.069 -580.71,-636.8c-375.056,-340.976 -935.1,-674.31 -1458.243,-674.31Zm0,199.705c193.424,0.304 383.458,51.099 551.24,147.339c-163.712,59.985 -273.248,216.643 -273.389,390.998c0.06,1.311 0.127,2.622 0.2,3.934c-7.064,167.649 104.107,343.702 333.603,404.038c26.968,7.089 55.092,8.652 82.974,8.804c145.618,-0.215 280.945,-76.731 356.197,-201.399c39.648,115.106 60.114,235.948 60.581,357.691c0,609.699 -501.706,1111.405 -1111.405,1111.405c-609.699,0 -1111.405,-501.706 -1111.405,-1111.405c0,-609.699 501.706,-1111.405 1111.405,-1111.405Z" style="fill-rule:nonzero;"/><path d="M6116.037,5531.946c-523.143,0 -1083.179,333.334 -1458.243,674.31c-303.301,275.734 -509.875,541.462 -580.71,636.8c70.835,95.338 277.409,361.069 580.71,636.8c375.056,340.976 935.1,674.31 1458.243,674.31c523.143,0 1083.179,-333.334 1458.243,-674.31c303.301,-275.734 509.875,-541.462 580.71,-636.8c-70.835,-95.338 -277.409,-361.069 -580.71,-636.8c-375.056,-340.976 -935.1,-674.31 -1458.243,-674.31Zm0,199.705c193.424,0.304 383.458,51.099 551.24,147.339c-163.712,59.985 -273.248,216.643 -273.389,390.998c0.06,1.311 0.127,2.622 0.2,3.934c-7.064,167.649 104.107,343.702 333.603,404.038c26.968,7.089 55.092,8.652 82.974,8.804c145.618,-0.215 280.945,-76.731 356.197,-201.399c39.648,115.106 60.114,235.948 60.581,357.691c0,609.699 -501.706,1111.405 -1111.405,1111.405c-609.699,0 -1111.405,-501.706 -1111.405,-1111.405c0,-609.699 501.706,-1111.405 1111.405,-1111.405Z" style="fill-rule:nonzero;"/></g></svg>